<svg width="195" height="44" viewBox="0 0 195 44" fill="none" xmlns="http://www.w3.org/2000/svg">
<path d="M72 33.832V11.656H86.976V15.848H76.992V20.2H85.856V24.296H76.992V29.64H87.712V33.832H72Z" fill="#322153"/>
<path d="M90.712 25.416C90.712 24.2 90.904 23.0587 91.288 21.992C91.6934 20.904 92.2694 19.9653 93.0161 19.176C93.7627 18.3653 94.6694 17.7253 95.736 17.256C96.8027 16.7867 98.0187 16.552 99.3841 16.552C100.28 16.552 101.102 16.6373 101.848 16.808C102.595 16.9573 103.32 17.1813 104.024 17.48L103.032 21.288C102.584 21.1173 102.094 20.968 101.56 20.84C101.027 20.712 100.429 20.648 99.7681 20.648C98.3601 20.648 97.3041 21.0853 96.6 21.96C95.9174 22.8347 95.576 23.9867 95.576 25.416C95.576 26.9307 95.8961 28.104 96.5361 28.936C97.1974 29.768 98.3387 30.184 99.9601 30.184C100.536 30.184 101.155 30.1307 101.816 30.024C102.478 29.9173 103.086 29.7467 103.64 29.512L104.312 33.416C103.758 33.6507 103.064 33.8533 102.232 34.024C101.4 34.1947 100.483 34.28 99.4801 34.28C97.9441 34.28 96.6214 34.056 95.5121 33.608C94.4027 33.1387 93.4854 32.5093 92.76 31.72C92.056 30.9307 91.5334 30.0027 91.1921 28.936C90.8721 27.848 90.712 26.6747 90.712 25.416Z" fill="#322153"/>
<path d="M166.592 25.416C166.592 24.2 166.784 23.0587 167.168 21.992C167.573 20.904 168.149 19.9653 168.896 19.176C169.643 18.3653 170.549 17.7253 171.616 17.256C172.683 16.7867 173.899 16.552 175.264 16.552C176.16 16.552 176.982 16.6373 177.728 16.808C178.475 16.9573 179.2 17.1813 179.904 17.48L178.912 21.288C178.464 21.1173 177.974 20.968 177.44 20.84C176.907 20.712 176.309 20.648 175.648 20.648C174.24 20.648 173.184 21.0853 172.48 21.96C171.797 22.8347 171.456 23.9867 171.456 25.416C171.456 26.9307 171.776 28.104 172.416 28.936C173.077 29.768 174.219 30.184 175.84 30.184C176.416 30.184 177.035 30.1307 177.696 30.024C178.358 29.9173 178.966 29.7467 179.52 29.512L180.192 33.416C179.638 33.6507 178.944 33.8533 178.112 34.024C177.28 34.1947 176.363 34.28 175.36 34.28C173.824 34.28 172.501 34.056 171.392 33.608C170.283 33.1387 169.365 32.5093 168.64 31.72C167.936 30.9307 167.413 30.0027 167.072 28.936C166.752 27.848 166.592 26.6747 166.592 25.416Z" fill="#322153"/>
<path d="M123.856 25.384C123.856 26.7067 123.664 27.9227 123.28 29.032C122.896 30.12 122.341 31.0587 121.616 31.848C120.89 32.616 120.016 33.2133 118.992 33.64C117.989 34.0667 116.858 34.28 115.6 34.28C114.362 34.28 113.232 34.0667 112.208 33.64C111.205 33.2133 110.341 32.616 109.616 31.848C108.89 31.0587 108.325 30.12 107.92 29.032C107.514 27.9227 107.312 26.7067 107.312 25.384C107.312 24.0613 107.514 22.856 107.92 21.768C108.346 20.68 108.922 19.752 109.648 18.984C110.394 18.216 111.269 17.6187 112.272 17.192C113.296 16.7653 114.405 16.552 115.6 16.552C116.816 16.552 117.925 16.7653 118.928 17.192C119.952 17.6187 120.826 18.216 121.552 18.984C122.277 19.752 122.842 20.68 123.248 21.768C123.653 22.856 123.856 24.0613 123.856 25.384ZM118.992 25.384C118.992 23.912 118.693 22.76 118.096 21.928C117.52 21.0747 116.688 20.648 115.6 20.648C114.512 20.648 113.669 21.0747 113.072 21.928C112.474 22.76 112.176 23.912 112.176 25.384C112.176 26.856 112.474 28.0293 113.072 28.904C113.669 29.7573 114.512 30.184 115.6 30.184C116.688 30.184 117.52 29.7573 118.096 28.904C118.693 28.0293 118.992 26.856 118.992 25.384Z" fill="#322153"/>
<path d="M144.112 34.152C142.726 34.1307 141.595 33.9813 140.72 33.704C139.867 33.4267 139.184 33.0427 138.672 32.552C138.182 32.04 137.84 31.432 137.648 30.728C137.478 30.0027 137.392 29.192 137.392 28.296V9.768L142.16 9V27.336C142.16 27.7627 142.192 28.1467 142.256 28.488C142.32 28.8293 142.438 29.1173 142.608 29.352C142.8 29.5867 143.067 29.7787 143.408 29.928C143.75 30.0773 144.208 30.1733 144.784 30.216L144.112 34.152Z" fill="#322153"/>
<path d="M133.72 34.152C132.334 34.1307 131.203 33.9813 130.328 33.704C129.475 33.4267 128.792 33.0427 128.28 32.552C127.79 32.04 127.448 31.432 127.256 30.728C127.086 30.0027 127 29.192 127 28.296V9.768L131.768 9V27.336C131.768 27.7627 131.8 28.1467 131.864 28.488C131.928 28.8293 132.046 29.1173 132.216 29.352C132.408 29.5867 132.675 29.7787 133.016 29.928C133.358 30.0773 133.816 30.1733 134.392 30.216L133.72 34.152Z" fill="#322153"/>
<path d="M14.642 1.84962L10.0671 10.5861C9.77167 11.1501 9.9662 11.8554 10.5046 12.1725L17.6681 16.3922C18.214 16.7137 18.9079 16.516 19.2183 15.9504L27.9745 0.000648499H17.6401C16.3892 0.000648499 15.2386 0.710177 14.642 1.84962Z" fill="#29A361"/>
<path d="M27.974 0L19.2182 15.95C18.9072 16.5154 18.2137 16.7136 17.6681 16.3923L15.7983 15.2913C16.2542 15.3674 16.7284 15.1503 16.9698 14.7099L25.0468 0H27.974Z" fill="#248F55"/>
<path d="M37.5549 8.45922L34.3995 1.94901C33.8206 0.754578 32.641 0.000648499 31.3513 0.000648499H22.228L29.2328 12.3166C29.2099 12.3273 29.1868 12.338 29.1638 12.3487C28.7232 12.5542 28.7412 13.2093 29.1923 13.3888L35.241 15.796C35.5213 15.9076 35.8358 15.7625 35.9434 15.4721L38.2751 9.17953C38.4475 8.71406 37.9948 8.26491 37.5549 8.45922Z" fill="#34CB79"/>
<path d="M38.2751 9.17899L35.9427 15.4715C35.8356 15.7627 35.5206 15.9079 35.2406 15.7958L33.4104 15.0671L35.5922 9.17899C35.7162 8.84506 35.5181 8.51988 35.2339 8.43458C34.9632 8.35326 34.7321 8.16954 34.6056 7.90858L31.7165 1.94875C31.1379 0.754706 29.9587 0 28.6685 0H31.3514C32.6407 0 33.8199 0.754706 34.3994 1.94875L37.5546 8.45945C37.9951 8.26524 38.4471 8.71361 38.2751 9.17899Z" fill="#2FB86E"/>
<path d="M31.4594 33.5593C31.3744 33.1978 30.9244 33.043 30.6498 33.3275L25.9222 38.2268C25.7336 38.4223 25.7336 38.7391 25.9222 38.9345L30.668 43.8526C30.9408 44.1353 31.3862 43.9844 31.4758 43.6291H38.4548C39.7397 43.6291 40.9156 42.8809 41.4969 41.6934L45.4791 33.5592H31.4594V33.5593Z" fill="#29A361"/>
<path d="M37.3508 33.5594L39.6137 37.1079C40.1253 37.9101 40.1819 38.9353 39.762 39.7928L38.8313 41.6935C38.2509 42.8806 37.0745 43.6293 35.79 43.6293H38.4547C39.7392 43.6293 40.9155 42.8806 41.497 41.6935L45.4789 33.5595H37.3508V33.5594Z" fill="#248F55"/>
<path d="M21.9354 42.6939V34.0356C21.9354 33.3849 21.4263 32.8572 20.7983 32.8572H2.06787L6.88812 42.0281C7.48559 43.1649 8.63469 43.8723 9.88372 43.8723H20.7983C21.4262 43.8723 21.9354 43.3448 21.9354 42.6939Z" fill="#29A361"/>
<path d="M10.0115 32.858L5.85181 40.0573L2.06787 32.858H10.0115Z" fill="#248F55"/>
<path d="M21.935 34.0358V42.6944C21.935 43.345 21.426 43.8724 20.7983 43.8724H17.8149C18.4427 43.8724 18.9517 43.345 18.9517 42.6944V34.0358C18.9517 33.3852 18.4427 32.8578 17.8149 32.8578H20.7983C21.426 32.8577 21.935 33.3852 21.935 34.0358Z" fill="#248F55"/>
<path d="M12.7847 25.2066L11.9436 18.6467C11.902 18.3226 11.6148 18.0949 11.3021 18.1379L4.94784 19.0129C4.46934 19.0788 4.29102 19.682 4.61877 20.0176L0.608522 26.0077C-0.126759 27.106 -0.201384 28.54 0.415585 29.7138L4.77955 38.0167L11.8654 25.7507C11.8679 25.7526 11.8703 25.7546 11.8729 25.7566C12.2773 26.0747 12.8515 25.7282 12.7847 25.2066Z" fill="#34CB79"/>
<path d="M11.8725 25.7566C11.8705 25.7545 11.8677 25.7526 11.8657 25.7506L4.77961 38.0163L3.32227 35.2438L9.08977 25.2586L9.2497 24.9816C9.33717 24.8302 9.50808 24.7648 9.67523 24.7984C9.67608 24.7986 9.67692 24.7987 9.67777 24.7989C10.0334 24.8646 10.3981 24.5576 10.3435 24.1362L9.60464 18.3712L11.3015 18.138C11.6145 18.095 11.9023 18.3232 11.9438 18.6464L12.785 25.2072C12.8518 25.7285 12.2771 26.0748 11.8725 25.7566Z" fill="#2FB86E"/>
<path d="M47.3959 25.5569L41.9103 17.3197C41.5739 16.8144 40.9193 16.6615 40.4062 16.9684L33.2574 21.2435C32.69 21.5828 32.5159 22.3475 32.8771 22.9139L42.9549 38.7151L47.6306 29.1643C48.1965 28.0083 48.1065 26.6239 47.3959 25.5569Z" fill="#34CB79"/>
<path d="M47.6305 29.1645L42.9541 38.7148L41.3857 36.2546L44.8568 29.1644C45.4227 28.0084 45.3329 26.6242 44.6221 25.5572L39.3306 17.6123L40.4064 16.9687C40.9193 16.6614 41.5741 16.8145 41.9102 17.32L47.3959 25.5573C48.1066 26.6243 48.1964 28.0085 47.6305 29.1645Z" fill="#2FB86E"/>
<path d="M147.784 25.992C147.784 24.4987 148.008 23.1973 148.456 22.088C148.926 20.9573 149.534 20.0187 150.28 19.272C151.027 18.5253 151.88 17.96 152.84 17.576C153.822 17.192 154.824 17 155.848 17C158.238 17 160.126 17.736 161.512 19.208C162.899 20.6587 163.592 22.8027 163.592 25.64C163.592 25.9173 163.582 26.2267 163.56 26.568C163.539 26.888 163.518 27.176 163.496 27.432H152.68C152.787 28.4133 153.246 29.192 154.056 29.768C154.867 30.344 155.955 30.632 157.32 30.632C158.195 30.632 159.048 30.5573 159.88 30.408C160.734 30.2373 161.427 30.0347 161.96 29.8L162.6 33.672C162.344 33.8 162.003 33.928 161.576 34.056C161.15 34.184 160.67 34.2907 160.136 34.376C159.624 34.4827 159.07 34.568 158.472 34.632C157.875 34.696 157.278 34.728 156.68 34.728C155.166 34.728 153.843 34.504 152.712 34.056C151.603 33.608 150.675 33 149.928 32.232C149.203 31.4427 148.659 30.5147 148.296 29.448C147.955 28.3813 147.784 27.2293 147.784 25.992ZM158.984 24.168C158.963 23.7627 158.888 23.368 158.76 22.984C158.654 22.6 158.472 22.2587 158.216 21.96C157.982 21.6613 157.672 21.416 157.288 21.224C156.926 21.032 156.467 20.936 155.912 20.936C155.379 20.936 154.92 21.032 154.536 21.224C154.152 21.3947 153.832 21.6293 153.576 21.928C153.32 22.2267 153.118 22.5787 152.968 22.984C152.84 23.368 152.744 23.7627 152.68 24.168H158.984Z" fill="#322153"/>
<path d="M183.192 12.768L187.96 12V16.96H193.688V20.928H187.96V26.848C187.96 27.8507 188.13 28.6507 188.472 29.248C188.834 29.8453 189.549 30.144 190.616 30.144C191.128 30.144 191.65 30.1013 192.184 30.016C192.738 29.9093 193.24 29.7707 193.688 29.6L194.36 33.312C193.784 33.5467 193.144 33.7493 192.44 33.92C191.736 34.0907 190.872 34.176 189.848 34.176C188.546 34.176 187.469 34.0053 186.616 33.664C185.762 33.3013 185.08 32.8107 184.568 32.192C184.056 31.552 183.693 30.784 183.48 29.888C183.288 28.992 183.192 28 183.192 26.912V12.768Z" fill="#322153"/>
</svg>
