<?xml version="1.0" standalone="no"?>
<!DOCTYPE svg PUBLIC "-//W3C//DTD SVG 20010904//EN"
 "http://www.w3.org/TR/2001/REC-SVG-20010904/DTD/svg10.dtd">
<svg version="1.0" xmlns="http://www.w3.org/2000/svg"
 width="768.000000pt" height="768.000000pt" viewBox="0 0 768.000000 768.000000"
 preserveAspectRatio="xMidYMid meet">
<metadata>
Created by potrace 1.14, written by Peter Selinger 2001-2017
</metadata>
<g transform="translate(0.000000,768.000000) scale(0.100000,-0.100000)"
fill="#000000" stroke="none">
<path d="M2698 7344 c-95 -23 -203 -85 -266 -154 -37 -40 -76 -99 -118 -180
-21 -41 -41 -77 -44 -80 -3 -3 -29 -52 -58 -110 -29 -58 -78 -152 -108 -210
-31 -58 -74 -141 -96 -185 -22 -44 -46 -87 -53 -95 -8 -8 -14 -19 -14 -25 -2
-16 -83 -170 -93 -173 -4 -2 -8 -11 -8 -21 0 -9 -4 -21 -9 -26 -4 -6 -41 -73
-81 -150 -154 -295 -160 -307 -160 -359 0 -69 37 -133 98 -168 99 -57 140 -82
247 -147 60 -36 121 -72 135 -79 14 -7 34 -18 45 -25 74 -45 225 -135 250
-148 16 -9 62 -35 100 -59 141 -87 385 -228 385 -223 0 3 6 1 13 -6 18 -14 94
-7 138 14 27 13 49 39 87 101 29 46 52 86 52 89 0 2 45 86 100 185 55 99 100
185 100 190 0 6 5 10 10 10 6 0 10 9 10 19 0 11 3 21 8 23 4 2 55 91 114 198
58 107 123 224 143 260 20 36 42 77 48 93 6 15 15 27 19 27 4 0 8 4 8 10 0 5
23 52 52 102 28 51 65 120 82 153 17 33 34 62 39 63 4 2 7 7 7 12 0 4 27 56
60 115 33 59 60 111 60 115 0 4 6 12 13 18 12 11 75 -92 236 -381 12 -21 40
-71 62 -110 23 -40 53 -92 67 -117 14 -25 50 -88 80 -140 30 -52 66 -115 80
-140 14 -25 40 -71 58 -103 19 -32 34 -61 34 -63 0 -3 10 -19 21 -36 l21 -29
-26 -28 c-59 -61 -37 -131 51 -165 26 -10 62 -24 78 -31 17 -7 84 -34 150 -60
66 -26 129 -50 140 -55 11 -4 45 -18 75 -30 30 -11 64 -25 75 -30 11 -5 56
-23 100 -40 102 -40 111 -44 165 -68 111 -49 192 -73 206 -61 8 6 14 8 14 4 0
-17 39 28 50 58 7 18 16 41 21 52 12 27 249 666 253 685 3 8 21 58 41 110 71
181 73 200 36 242 -20 23 -35 30 -63 30 -35 0 -36 1 -84 101 -26 56 -107 225
-181 374 -217 445 -237 488 -238 493 0 3 -18 39 -40 80 -44 82 -149 197 -203
221 -17 7 -32 17 -32 21 0 5 -8 8 -18 8 -10 0 -22 4 -28 9 -5 5 -34 16 -64 25
-49 14 -185 15 -1225 15 -962 -1 -1180 -3 -1227 -15z"/>
<path d="M6452 4640 c-26 -14 -66 -38 -89 -53 -24 -15 -47 -27 -52 -27 -5 0
-11 -3 -13 -8 -3 -6 -188 -119 -545 -331 -60 -35 -120 -71 -135 -80 -219 -130
-316 -190 -335 -209 -34 -34 -51 -72 -54 -122 -2 -45 18 -120 33 -120 4 0 8
-5 8 -12 0 -6 11 -26 25 -44 14 -18 25 -35 25 -38 0 -4 16 -29 35 -56 19 -27
35 -52 35 -54 0 -3 27 -45 60 -95 33 -50 60 -92 60 -95 0 -2 24 -39 53 -83 48
-75 73 -114 213 -334 29 -46 58 -89 64 -96 5 -7 10 -16 10 -21 0 -4 8 -17 18
-28 9 -11 24 -32 32 -46 13 -23 91 -146 162 -256 10 -15 25 -40 34 -56 9 -16
20 -34 25 -40 8 -9 178 -277 213 -333 6 -10 -127 -13 -649 -13 -639 0 -657 1
-662 19 -6 24 -55 45 -86 37 -20 -5 -154 -139 -500 -499 -43 -45 -128 -133
-188 -195 -61 -63 -114 -124 -119 -137 -14 -38 -4 -66 44 -114 24 -26 79 -83
122 -128 653 -676 629 -653 654 -653 28 0 80 30 80 46 0 10 235 17 530 15 452
-4 652 -1 690 8 25 6 52 13 60 15 91 24 203 105 274 199 28 37 116 208 116
225 0 7 5 12 10 12 6 0 10 4 10 10 0 5 61 134 136 286 74 152 140 286 145 298
5 11 13 28 19 36 5 8 45 89 89 180 99 207 243 502 401 825 68 138 125 255 126
260 2 6 11 37 20 70 17 63 26 223 12 231 -5 3 -6 9 -3 14 12 19 -58 192 -92
228 -6 6 -15 21 -18 32 -3 11 -11 20 -16 20 -5 0 -9 6 -9 13 0 7 -8 22 -17 33
-25 27 -87 121 -114 172 -7 12 -16 22 -21 22 -4 0 -8 7 -8 15 0 8 -4 15 -10
15 -5 0 -10 4 -10 10 0 11 -82 133 -92 138 -5 2 -8 8 -8 13 0 9 -36 65 -50 79
-3 3 -11 17 -19 32 -8 15 -22 37 -33 47 -10 11 -18 23 -18 26 0 3 -16 28 -35
55 -19 27 -35 54 -35 60 0 5 -4 10 -10 10 -5 0 -16 15 -25 34 -9 18 -25 43
-35 54 -11 12 -20 24 -20 27 0 3 -16 28 -35 55 -19 27 -35 54 -35 59 0 5 -4
11 -8 13 -5 2 -48 63 -96 137 -49 73 -102 148 -118 167 -52 60 -144 69 -226
24z"/>
<path d="M1779 4456 c-2 -2 -33 -7 -68 -10 -36 -4 -67 -9 -70 -10 -3 -2 -37
-7 -75 -11 -38 -3 -72 -8 -75 -10 -3 -1 -32 -6 -63 -9 -31 -3 -63 -8 -70 -11
-7 -2 -35 -6 -63 -9 -27 -3 -79 -9 -115 -15 -36 -5 -87 -13 -115 -16 -27 -4
-63 -8 -80 -11 -16 -2 -43 -6 -60 -8 -16 -2 -54 -7 -84 -11 -63 -7 -105 -27
-116 -52 -13 -29 -15 -82 -5 -88 21 -13 7 -48 -60 -145 -38 -56 -70 -103 -70
-105 0 -3 -112 -171 -127 -190 -4 -5 -66 -98 -138 -205 -71 -107 -133 -196
-137 -198 -4 -2 -8 -8 -8 -13 0 -4 -26 -48 -58 -96 -53 -79 -69 -108 -73 -131
0 -4 -6 -16 -12 -27 -6 -11 -12 -24 -13 -30 -2 -5 -6 -21 -10 -35 -3 -14 -8
-67 -9 -119 -4 -141 16 -204 133 -421 19 -36 39 -71 45 -77 5 -7 6 -13 2 -13
-4 0 -3 -6 3 -12 10 -13 50 -87 169 -318 39 -74 96 -184 128 -245 32 -60 85
-162 118 -225 33 -63 75 -144 95 -180 19 -36 64 -121 100 -190 36 -69 87 -165
114 -215 26 -49 65 -124 85 -165 21 -41 40 -77 43 -80 3 -3 23 -39 44 -80 56
-107 108 -172 176 -220 19 -13 37 -27 40 -30 7 -7 76 -39 130 -58 41 -15 133
-17 1000 -17 l955 0 38 25 c21 15 47 45 61 73 l24 47 0 726 c0 511 -4 736 -12
762 -15 50 -73 107 -122 118 -23 5 -472 9 -1081 9 -574 -1 -1043 3 -1043 7 0
5 11 25 23 46 13 20 35 57 49 82 14 25 51 89 82 143 131 227 166 290 166 297
0 5 3 10 8 12 4 2 52 82 107 178 55 96 103 177 107 178 5 2 8 8 8 14 0 6 23
48 51 95 37 61 54 82 62 74 6 -6 25 -11 42 -11 52 0 100 60 89 112 -2 13 -7
50 -10 83 -3 33 -7 67 -9 75 -2 8 -7 42 -10 75 -4 33 -8 71 -10 85 -13 79 -16
99 -19 135 -7 65 -26 218 -30 245 -3 14 -7 49 -10 79 -4 30 -9 64 -11 75 -3
12 -7 46 -10 76 -4 30 -8 64 -9 75 -2 11 -4 30 -5 43 -2 37 -53 82 -94 82 -18
0 -36 -2 -38 -4z"/>
</g>
</svg>
